<svg xmlns="http://www.w3.org/2000/svg" viewBox="0 0 256 128" role="img" aria-label="Neon rider sprite sheet">
  <defs>
    <filter id="neonGlow" x="-40%" y="-40%" width="180%" height="180%">
      <feGaussianBlur stdDeviation="1.5" result="glow" />
      <feMerge>
        <feMergeNode in="glow" />
        <feMergeNode in="SourceGraphic" />
      </feMerge>
    </filter>
  </defs>
  <g fill="none" stroke-linecap="round" stroke-linejoin="round" filter="url(#neonGlow)">
    <g transform="translate(0 0)">
      <circle cx="18" cy="45" r="10" stroke="#38bdf8" stroke-width="3" />
      <circle cx="46" cy="45" r="10" stroke="#fb7185" stroke-width="3" />
      <path d="M18 45 30 28 46 45 31 45 24 34" stroke="#3cf2d2" stroke-width="3" />
      <path d="M30 28 38 19 45 24" stroke="#f7fbff" stroke-width="3" />
      <circle cx="36" cy="14" r="4" fill="#f7fbff" stroke="none" />
      <path d="M29 30 24 42 M32 31 42 42" stroke="#ffca57" stroke-width="3" />
    </g>
    <g transform="translate(64 0)">
      <circle cx="18" cy="45" r="10" stroke="#38bdf8" stroke-width="3" />
      <circle cx="46" cy="45" r="10" stroke="#fb7185" stroke-width="3" />
      <path d="M18 45 30 28 46 45 31 45 24 34" stroke="#3cf2d2" stroke-width="3" />
      <path d="M30 28 38 18 47 21" stroke="#f7fbff" stroke-width="3" />
      <circle cx="36" cy="13" r="4" fill="#f7fbff" stroke="none" />
      <path d="M29 30 34 42 M32 31 21 42" stroke="#ffca57" stroke-width="3" />
    </g>
    <g transform="translate(128 0)">
      <circle cx="18" cy="45" r="10" stroke="#38bdf8" stroke-width="3" />
      <circle cx="46" cy="45" r="10" stroke="#fb7185" stroke-width="3" />
      <path d="M18 45 30 28 46 45 31 45 24 34" stroke="#3cf2d2" stroke-width="3" />
      <path d="M30 28 38 19 45 24" stroke="#f7fbff" stroke-width="3" />
      <circle cx="36" cy="14" r="4" fill="#f7fbff" stroke="none" />
      <path d="M29 30 42 42 M32 31 24 42" stroke="#ffca57" stroke-width="3" />
    </g>
    <g transform="translate(192 0)">
      <circle cx="18" cy="45" r="10" stroke="#38bdf8" stroke-width="3" />
      <circle cx="46" cy="45" r="10" stroke="#fb7185" stroke-width="3" />
      <path d="M18 45 30 28 46 45 31 45 24 34" stroke="#3cf2d2" stroke-width="3" />
      <path d="M30 28 38 18 47 21" stroke="#f7fbff" stroke-width="3" />
      <circle cx="36" cy="13" r="4" fill="#f7fbff" stroke="none" />
      <path d="M29 30 21 42 M32 31 34 42" stroke="#ffca57" stroke-width="3" />
    </g>
    <g transform="translate(0 64)">
      <path d="M4 24h11M2 31h13M5 38h10" stroke="#3cf2d2" stroke-width="2" opacity=".7" />
      <circle cx="18" cy="45" r="10" stroke="#38bdf8" stroke-width="3" />
      <circle cx="46" cy="45" r="10" stroke="#fb7185" stroke-width="3" />
      <path d="M18 45 31 25 47 45 31 45 24 32" stroke="#3cf2d2" stroke-width="3" />
      <path d="M31 25 41 15 52 18" stroke="#f7fbff" stroke-width="3" />
      <circle cx="39" cy="10" r="4" fill="#f7fbff" stroke="none" />
      <path d="M30 28 44 41 M33 29 20 43" stroke="#ffca57" stroke-width="3" />
    </g>
    <g transform="translate(64 64)">
      <path d="M3 25h12M1 33h13M6 41h9" stroke="#3cf2d2" stroke-width="2" opacity=".7" />
      <circle cx="18" cy="45" r="10" stroke="#38bdf8" stroke-width="3" />
      <circle cx="46" cy="45" r="10" stroke="#fb7185" stroke-width="3" />
      <path d="M18 45 31 25 47 45 31 45 24 32" stroke="#3cf2d2" stroke-width="3" />
      <path d="M31 25 42 16 53 20" stroke="#f7fbff" stroke-width="3" />
      <circle cx="40" cy="11" r="4" fill="#f7fbff" stroke="none" />
      <path d="M30 28 22 42 M33 29 44 42" stroke="#ffca57" stroke-width="3" />
    </g>
    <g transform="translate(128 64)">
      <path d="M4 24h11M2 31h13M5 38h10" stroke="#3cf2d2" stroke-width="2" opacity=".7" />
      <circle cx="18" cy="45" r="10" stroke="#38bdf8" stroke-width="3" />
      <circle cx="46" cy="45" r="10" stroke="#fb7185" stroke-width="3" />
      <path d="M18 45 31 25 47 45 31 45 24 32" stroke="#3cf2d2" stroke-width="3" />
      <path d="M31 25 41 15 52 18" stroke="#f7fbff" stroke-width="3" />
      <circle cx="39" cy="10" r="4" fill="#f7fbff" stroke="none" />
      <path d="M30 28 20 43 M33 29 44 41" stroke="#ffca57" stroke-width="3" />
    </g>
    <g transform="translate(192 64)">
      <path d="M3 25h12M1 33h13M6 41h9" stroke="#3cf2d2" stroke-width="2" opacity=".7" />
      <circle cx="18" cy="45" r="10" stroke="#38bdf8" stroke-width="3" />
      <circle cx="46" cy="45" r="10" stroke="#fb7185" stroke-width="3" />
      <path d="M18 45 31 25 47 45 31 45 24 32" stroke="#3cf2d2" stroke-width="3" />
      <path d="M31 25 42 16 53 20" stroke="#f7fbff" stroke-width="3" />
      <circle cx="40" cy="11" r="4" fill="#f7fbff" stroke="none" />
      <path d="M30 28 44 42 M33 29 22 42" stroke="#ffca57" stroke-width="3" />
    </g>
  </g>
</svg>
