<svg xmlns="http://www.w3.org/2000/svg" viewBox="0 0 256 128" role="img" aria-label="Oregon Trail wagon sprite sheet">
  <g shape-rendering="crispEdges">
    <g transform="translate(0 0)">
      <rect x="16" y="28" width="32" height="8" fill="#f3e1b7" />
      <rect x="12" y="36" width="40" height="10" fill="#d4b06a" />
      <rect x="16" y="24" width="8" height="4" fill="#f3e1b7" />
      <rect x="24" y="20" width="16" height="8" fill="#f3e1b7" />
      <rect x="40" y="24" width="8" height="4" fill="#f3e1b7" />
      <rect x="18" y="46" width="8" height="8" fill="#000000" />
      <rect x="38" y="46" width="8" height="8" fill="#000000" />
      <rect x="20" y="48" width="4" height="4" fill="#f3e1b7" />
      <rect x="40" y="48" width="4" height="4" fill="#f3e1b7" />
    </g>
    <g transform="translate(64 0)">
      <rect x="16" y="28" width="32" height="8" fill="#f3e1b7" />
      <rect x="12" y="36" width="40" height="10" fill="#d4b06a" />
      <rect x="16" y="24" width="8" height="4" fill="#f3e1b7" />
      <rect x="24" y="20" width="16" height="8" fill="#f3e1b7" />
      <rect x="40" y="24" width="8" height="4" fill="#f3e1b7" />
      <rect x="18" y="46" width="8" height="8" fill="#000000" />
      <rect x="38" y="46" width="8" height="8" fill="#000000" />
      <rect x="18" y="46" width="4" height="4" fill="#f3e1b7" />
      <rect x="42" y="50" width="4" height="4" fill="#f3e1b7" />
    </g>
    <g transform="translate(128 0)">
      <rect x="16" y="28" width="32" height="8" fill="#f3e1b7" />
      <rect x="12" y="36" width="40" height="10" fill="#d4b06a" />
      <rect x="16" y="24" width="8" height="4" fill="#f3e1b7" />
      <rect x="24" y="20" width="16" height="8" fill="#f3e1b7" />
      <rect x="40" y="24" width="8" height="4" fill="#f3e1b7" />
      <rect x="18" y="46" width="8" height="8" fill="#000000" />
      <rect x="38" y="46" width="8" height="8" fill="#000000" />
      <rect x="20" y="48" width="4" height="4" fill="#f3e1b7" />
      <rect x="40" y="48" width="4" height="4" fill="#f3e1b7" />
    </g>
    <g transform="translate(192 0)">
      <rect x="16" y="28" width="32" height="8" fill="#f3e1b7" />
      <rect x="12" y="36" width="40" height="10" fill="#d4b06a" />
      <rect x="16" y="24" width="8" height="4" fill="#f3e1b7" />
      <rect x="24" y="20" width="16" height="8" fill="#f3e1b7" />
      <rect x="40" y="24" width="8" height="4" fill="#f3e1b7" />
      <rect x="18" y="46" width="8" height="8" fill="#000000" />
      <rect x="38" y="46" width="8" height="8" fill="#000000" />
      <rect x="22" y="50" width="4" height="4" fill="#f3e1b7" />
      <rect x="38" y="46" width="4" height="4" fill="#f3e1b7" />
    </g>
    <g transform="translate(0 64)">
      <rect x="4" y="30" width="8" height="4" fill="#5d97a4" />
      <rect x="0" y="38" width="12" height="4" fill="#5d97a4" />
      <rect x="6" y="46" width="6" height="4" fill="#5d97a4" />
      <rect x="17" y="27" width="32" height="8" fill="#f3e1b7" />
      <rect x="13" y="35" width="40" height="11" fill="#d4b06a" />
      <rect x="17" y="23" width="8" height="4" fill="#f3e1b7" />
      <rect x="25" y="19" width="16" height="8" fill="#f3e1b7" />
      <rect x="41" y="23" width="8" height="4" fill="#f3e1b7" />
      <rect x="19" y="46" width="8" height="8" fill="#000000" />
      <rect x="39" y="46" width="8" height="8" fill="#000000" />
      <rect x="19" y="46" width="4" height="4" fill="#f3e1b7" />
      <rect x="43" y="50" width="4" height="4" fill="#f3e1b7" />
    </g>
    <g transform="translate(64 64)">
      <rect x="5" y="28" width="8" height="4" fill="#5d97a4" />
      <rect x="1" y="36" width="12" height="4" fill="#5d97a4" />
      <rect x="7" y="44" width="6" height="4" fill="#5d97a4" />
      <rect x="17" y="27" width="32" height="8" fill="#f3e1b7" />
      <rect x="13" y="35" width="40" height="11" fill="#d4b06a" />
      <rect x="17" y="23" width="8" height="4" fill="#f3e1b7" />
      <rect x="25" y="19" width="16" height="8" fill="#f3e1b7" />
      <rect x="41" y="23" width="8" height="4" fill="#f3e1b7" />
      <rect x="19" y="46" width="8" height="8" fill="#000000" />
      <rect x="39" y="46" width="8" height="8" fill="#000000" />
      <rect x="21" y="48" width="4" height="4" fill="#f3e1b7" />
      <rect x="41" y="48" width="4" height="4" fill="#f3e1b7" />
    </g>
    <g transform="translate(128 64)">
      <rect x="4" y="30" width="8" height="4" fill="#5d97a4" />
      <rect x="0" y="38" width="12" height="4" fill="#5d97a4" />
      <rect x="6" y="46" width="6" height="4" fill="#5d97a4" />
      <rect x="17" y="27" width="32" height="8" fill="#f3e1b7" />
      <rect x="13" y="35" width="40" height="11" fill="#d4b06a" />
      <rect x="17" y="23" width="8" height="4" fill="#f3e1b7" />
      <rect x="25" y="19" width="16" height="8" fill="#f3e1b7" />
      <rect x="41" y="23" width="8" height="4" fill="#f3e1b7" />
      <rect x="19" y="46" width="8" height="8" fill="#000000" />
      <rect x="39" y="46" width="8" height="8" fill="#000000" />
      <rect x="19" y="46" width="4" height="4" fill="#f3e1b7" />
      <rect x="43" y="50" width="4" height="4" fill="#f3e1b7" />
    </g>
    <g transform="translate(192 64)">
      <rect x="5" y="28" width="8" height="4" fill="#5d97a4" />
      <rect x="1" y="36" width="12" height="4" fill="#5d97a4" />
      <rect x="7" y="44" width="6" height="4" fill="#5d97a4" />
      <rect x="17" y="27" width="32" height="8" fill="#f3e1b7" />
      <rect x="13" y="35" width="40" height="11" fill="#d4b06a" />
      <rect x="17" y="23" width="8" height="4" fill="#f3e1b7" />
      <rect x="25" y="19" width="16" height="8" fill="#f3e1b7" />
      <rect x="41" y="23" width="8" height="4" fill="#f3e1b7" />
      <rect x="19" y="46" width="8" height="8" fill="#000000" />
      <rect x="39" y="46" width="8" height="8" fill="#000000" />
      <rect x="21" y="48" width="4" height="4" fill="#f3e1b7" />
      <rect x="41" y="48" width="4" height="4" fill="#f3e1b7" />
    </g>
  </g>
</svg>
